<svg xmlns="http://www.w3.org/2000/svg" xmlns:xlink="http://www.w3.org/1999/xlink" viewBox="0,0,256,256" width="128px" height="128px"><defs><linearGradient x1="31.937" y1="5" x2="31.937" y2="58.875" gradientUnits="userSpaceOnUse" id="color-1"><stop offset="0" stop-color="#1a6dff"></stop><stop offset="1" stop-color="#c822ff"></stop></linearGradient><linearGradient x1="41.5" y1="10" x2="41.5" y2="54" gradientUnits="userSpaceOnUse" id="color-2"><stop offset="0" stop-color="#6dc7ff"></stop><stop offset="1" stop-color="#e6abff"></stop></linearGradient><linearGradient x1="23.313" y1="16" x2="23.313" y2="46.625" gradientUnits="userSpaceOnUse" id="color-3"><stop offset="0" stop-color="#6dc7ff"></stop><stop offset="1" stop-color="#e6abff"></stop></linearGradient></defs><g fill="none" fill-rule="nonzero" stroke="none" stroke-width="1" stroke-linecap="butt" stroke-linejoin="miter" stroke-miterlimit="10" stroke-dasharray="" stroke-dashoffset="0" font-family="none" font-weight="none" font-size="none" text-anchor="none" style="mix-blend-mode: normal"><g transform="scale(4,4)"><path d="M31.875,58.875c-0.092,0 -0.183,-0.013 -0.271,-0.037l-18.625,-5.25c-0.398,-0.113 -0.687,-0.46 -0.725,-0.872l-4.25,-46.625c-0.025,-0.28 0.068,-0.558 0.258,-0.765c0.189,-0.208 0.457,-0.326 0.738,-0.326h45.875c0.28,0 0.547,0.117 0.736,0.324c0.189,0.206 0.284,0.482 0.26,0.762l-4,46.625c-0.035,0.416 -0.327,0.767 -0.729,0.878l-19,5.25c-0.088,0.024 -0.177,0.036 -0.267,0.036zM14.184,51.85l17.694,4.987l18.061,-4.99l3.846,-44.847h-43.689z" fill="url(#color-1)"></path><path d="M32,10v44l15.25,-4l3.75,-40zM47.375,28.625l-1.125,14.75l-12.5,3.125v-5.25l9,-2.5l0.125,-4.375l-9.25,1.375v-19.75h14.625l-0.375,5.375l-9.625,0.125v8.125z" fill="url(#color-2)"></path><path d="M16.625,42.875v-5.5l9,2.5v-23.875h4.375v30.625z" fill="url(#color-3)"></path></g></g><g fill="#cc5de8" fill-rule="nonzero" stroke="none" stroke-width="1" stroke-linecap="butt" stroke-linejoin="miter" stroke-miterlimit="10" stroke-dasharray="" stroke-dashoffset="0" font-family="none" font-weight="none" font-size="none" text-anchor="none" style="mix-blend-mode: normal"><g><path d="M219.2,237.12v-26.71h7.67v28.67c0,1.49333 -0.17,2.91333 -0.51,4.26c-0.33333,1.34 -0.88333,2.52333 -1.65,3.55c-0.76667,1.02667 -1.74667,1.85 -2.94,2.47c-1.19333,0.61333 -2.65,0.92 -4.37,0.92v0c-1.08,0 -2.25333,-0.11 -3.52,-0.33c-1.27333,-0.22667 -2.37667,-0.54667 -3.31,-0.96v0l1.68,-6.27c0.97333,0.48667 2.07667,0.73 3.31,0.73v0c1.56667,0 2.56333,-0.58 2.99,-1.74c0.43333,-1.15333 0.65,-2.68333 0.65,-4.59zM245.35,241.88v0c0,-0.74667 -0.31667,-1.34333 -0.95,-1.79c-0.64,-0.44667 -1.42667,-0.85667 -2.36,-1.23c-0.93333,-0.37333 -1.96,-0.75667 -3.08,-1.15c-1.12,-0.39333 -2.14667,-0.93333 -3.08,-1.62c-0.93333,-0.69333 -1.71667,-1.57333 -2.35,-2.64c-0.63333,-1.06 -0.95,-2.43 -0.95,-4.11v0c0,-2.76667 0.82,-4.87667 2.46,-6.33c1.64667,-1.45333 4.02,-2.18 7.12,-2.18v0c2.12667,0 4.04667,0.22333 5.76,0.67c1.72,0.44667 3.06667,0.95 4.04,1.51v0l-1.63,5.26c-0.86,-0.33333 -1.94333,-0.68667 -3.25,-1.06c-1.30667,-0.37333 -2.63,-0.56 -3.97,-0.56v0c-2.16667,0 -3.25,0.84 -3.25,2.52v0c0,0.67333 0.31667,1.21333 0.95,1.62c0.63333,0.41333 1.41667,0.79667 2.35,1.15c0.93333,0.35333 1.96,0.73667 3.08,1.15c1.12,0.41333 2.14667,0.94667 3.08,1.6c0.93333,0.65333 1.72,1.5 2.36,2.54c0.63333,1.04667 0.95,2.39333 0.95,4.04v0c0,2.83333 -0.90667,5.06333 -2.72,6.69c-1.80667,1.62 -4.52333,2.43 -8.15,2.43v0c-1.97333,0 -3.83,-0.25 -5.57,-0.75c-1.73333,-0.50667 -3.14333,-1.09667 -4.23,-1.77v0l2.02,-5.43c0.86,0.48667 2,0.96333 3.42,1.43c1.41333,0.46667 2.86667,0.7 4.36,0.7v0c1.08667,0 1.95667,-0.20667 2.61,-0.62c0.65333,-0.40667 0.98,-1.09667 0.98,-2.07z"></path></g></g></svg>