<svg xmlns="http://www.w3.org/2000/svg" xmlns:xlink="http://www.w3.org/1999/xlink" viewBox="0,0,256,256" width="128px" height="128px"><defs><linearGradient x1="31.937" y1="5" x2="31.937" y2="58.875" gradientUnits="userSpaceOnUse" id="color-1"><stop offset="0" stop-color="#1a6dff"></stop><stop offset="1" stop-color="#c822ff"></stop></linearGradient><linearGradient x1="41.5" y1="10" x2="41.5" y2="54" gradientUnits="userSpaceOnUse" id="color-2"><stop offset="0" stop-color="#6dc7ff"></stop><stop offset="1" stop-color="#e6abff"></stop></linearGradient><linearGradient x1="23.313" y1="16" x2="23.313" y2="46.625" gradientUnits="userSpaceOnUse" id="color-3"><stop offset="0" stop-color="#6dc7ff"></stop><stop offset="1" stop-color="#e6abff"></stop></linearGradient></defs><g fill="none" fill-rule="nonzero" stroke="none" stroke-width="1" stroke-linecap="butt" stroke-linejoin="miter" stroke-miterlimit="10" stroke-dasharray="" stroke-dashoffset="0" font-family="none" font-weight="none" font-size="none" text-anchor="none" style="mix-blend-mode: normal"><g transform="scale(4,4)"><path d="M31.875,58.875c-0.092,0 -0.183,-0.013 -0.271,-0.037l-18.625,-5.25c-0.398,-0.113 -0.687,-0.46 -0.725,-0.872l-4.25,-46.625c-0.025,-0.28 0.068,-0.558 0.258,-0.765c0.189,-0.208 0.457,-0.326 0.738,-0.326h45.875c0.28,0 0.547,0.117 0.736,0.324c0.189,0.206 0.284,0.482 0.26,0.762l-4,46.625c-0.035,0.416 -0.327,0.767 -0.729,0.878l-19,5.25c-0.088,0.024 -0.177,0.036 -0.267,0.036zM14.184,51.85l17.694,4.987l18.061,-4.99l3.846,-44.847h-43.689z" fill="url(#color-1)"></path><path d="M32,10v44l15.25,-4l3.75,-40zM47.375,28.625l-1.125,14.75l-12.5,3.125v-5.25l9,-2.5l0.125,-4.375l-9.25,1.375v-19.75h14.625l-0.375,5.375l-9.625,0.125v8.125z" fill="url(#color-2)"></path><path d="M16.625,42.875v-5.5l9,2.5v-23.875h4.375v30.625z" fill="url(#color-3)"></path></g></g><g fill="#cc5de8" fill-rule="nonzero" stroke="none" stroke-width="1" stroke-linecap="butt" stroke-linejoin="miter" stroke-miterlimit="10" stroke-dasharray="" stroke-dashoffset="0" font-family="none" font-weight="none" font-size="none" text-anchor="none" style="mix-blend-mode: normal"><g><path d="M220.215,238.125v-18.94h2.99v19.66c0,1.92 -0.42667,3.38333 -1.28,4.39c-0.85333,1.00667 -2.14333,1.51 -3.87,1.51v0c-0.19333,0 -0.43333,-0.01333 -0.72,-0.04c-0.28667,-0.02 -0.57333,-0.05333 -0.86,-0.1c-0.28667,-0.05333 -0.57,-0.11333 -0.85,-0.18c-0.27333,-0.07333 -0.49333,-0.16 -0.66,-0.26v0l0.57,-2.55c0.67333,0.31333 1.40667,0.47 2.2,0.47v0c1.00667,0 1.67333,-0.35667 2,-1.07c0.32,-0.70667 0.48,-1.67 0.48,-2.89zM237.355,239.485v0c0,-0.72 -0.21667,-1.28333 -0.65,-1.69c-0.43333,-0.40667 -0.96667,-0.74667 -1.6,-1.02c-0.64,-0.28 -1.33667,-0.54667 -2.09,-0.8c-0.75333,-0.24667 -1.45,-0.57 -2.09,-0.97c-0.63333,-0.39333 -1.16667,-0.90333 -1.6,-1.53c-0.43333,-0.62 -0.65,-1.46 -0.65,-2.52v0c0,-1.72667 0.49333,-2.99333 1.48,-3.8c0.98,-0.8 2.34667,-1.2 4.1,-1.2v0c1.3,0 2.38667,0.11333 3.26,0.34c0.87333,0.22667 1.63667,0.49667 2.29,0.81v0l-0.69,2.38c-0.55333,-0.26667 -1.22,-0.50333 -2,-0.71c-0.78,-0.2 -1.61333,-0.3 -2.5,-0.3v0c-1.05333,0 -1.82667,0.18 -2.32,0.54c-0.49333,0.36 -0.74,0.98333 -0.74,1.87v0c0,0.62667 0.21667,1.11333 0.65,1.46c0.43333,0.34667 0.96667,0.65667 1.6,0.93c0.64,0.28 1.33667,0.55 2.09,0.81c0.75333,0.26667 1.45,0.61667 2.09,1.05c0.63333,0.43333 1.16667,0.98 1.6,1.64c0.43333,0.66 0.65,1.53 0.65,2.61v0c0,0.76667 -0.12667,1.48667 -0.38,2.16c-0.25333,0.66667 -0.64333,1.24 -1.17,1.72c-0.52667,0.48 -1.18,0.86 -1.96,1.14c-0.78,0.27333 -1.7,0.41 -2.76,0.41v0c-1.36667,0 -2.53,-0.13 -3.49,-0.39c-0.96,-0.26667 -1.76333,-0.58 -2.41,-0.94v0l0.86,-2.45c0.55333,0.31333 1.27333,0.60333 2.16,0.87c0.89333,0.26 1.79333,0.39 2.7,0.39v0c1.03333,0 1.88667,-0.20333 2.56,-0.61c0.67333,-0.40667 1.01,-1.14 1.01,-2.2z"></path></g></g></svg>